<?xml version="1.0" encoding="utf-8"?>
<!-- Generator: Adobe Illustrator 23.1.1, SVG Export Plug-In . SVG Version: 6.00 Build 0)  -->
<svg version="1.1" id="Capa_1" xmlns="http://www.w3.org/2000/svg" xmlns:xlink="http://www.w3.org/1999/xlink" x="0px" y="0px"
	 viewBox="0 0 871.9 538.9" style="enable-background:new 0 0 871.9 538.9;" xml:space="preserve">
<style type="text/css">
	.st0{fill:url(#SVGID_1_);}
	.st1{fill:#FFFFFF;}
	.st2{fill:#F5F5F5;}
	.st3{fill:url(#SVGID_2_);}
	.st4{fill:url(#SVGID_3_);}
	.st5{fill:url(#SVGID_4_);}
	.st6{fill:#FFE000;}
	.st7{fill:url(#SVGID_5_);}
	.st8{clip-path:url(#SVGID_7_);}
	.st9{fill:#FBBC05;}
	.st10{fill:#EA4335;}
	.st11{fill:#34A853;}
	.st12{fill:#4285F4;}
	.st13{fill:url(#SVGID_8_);}
	.st14{fill:url(#SVGID_9_);}
	.st15{fill:url(#SVGID_10_);}
	.st16{fill:#6B0094;}
	.st17{fill:url(#SVGID_11_);}
	.st18{fill:url(#SVGID_12_);}
	.st19{fill:url(#SVGID_13_);}
	.st20{fill:url(#SVGID_14_);}
	.st21{fill:url(#SVGID_15_);}
	.st22{fill:#F4BD27;}
	.st23{fill:url(#SVGID_16_);}
	.st24{fill:url(#SVGID_17_);}
	.st25{fill:url(#SVGID_18_);}
	.st26{fill:url(#SVGID_19_);}
	.st27{fill:url(#SVGID_20_);}
	.st28{fill:url(#SVGID_21_);}
	.st29{fill:#010202;}
	.st30{fill:#E52620;}
</style>
<title>search engines</title>
<linearGradient id="SVGID_1_" gradientUnits="userSpaceOnUse" x1="435.955" y1="-0.91" x2="435.955" y2="160.32" gradientTransform="matrix(1 0 0 -1 0 538)">
	<stop  offset="0" style="stop-color:#808080;stop-opacity:0.25"/>
	<stop  offset="0.54" style="stop-color:#808080;stop-opacity:0.12"/>
	<stop  offset="1" style="stop-color:#808080;stop-opacity:0.1"/>
</linearGradient>
<rect y="377.7" class="st0" width="871.9" height="161.2"/>
<rect x="5.1" y="383" class="st1" width="860.5" height="147.4"/>
<rect x="57.9" y="413" class="st2" width="500.2" height="87.7"/>
<linearGradient id="SVGID_2_" gradientUnits="userSpaceOnUse" x1="895.412" y1="-167.2636" x2="895.412" y2="-46.9636" gradientTransform="matrix(1 0 0 -1 -164.05 357.45)">
	<stop  offset="0" style="stop-color:#B3B3B3;stop-opacity:0.25"/>
	<stop  offset="0.54" style="stop-color:#B3B3B3;stop-opacity:0.1"/>
	<stop  offset="1" style="stop-color:#B3B3B3;stop-opacity:5.000000e-02"/>
</linearGradient>
<path class="st3" d="M752.2,418.6c-17.7-18.4-47-19-65.5-1.3c-18.4,17.7-19,47-1.3,65.5c15.6,16.2,40.6,18.9,59.2,6.4l33.5,34.8
	c0.9,0.9,2.3,0.9,3.2,0.1c0,0,0,0,0,0l8.3-8c0.9-0.9,0.9-2.3,0.1-3.2c0,0,0,0,0,0l-33.5-34.8C769.4,459.9,767.7,434.8,752.2,418.6z
	 M741.7,474.6c-13.2,12.7-34.2,12.3-46.8-0.9c-12.7-13.2-12.3-34.2,0.9-46.8c13.2-12.7,34.2-12.3,46.8,0.9
	C755.3,441,754.9,461.9,741.7,474.6L741.7,474.6z"/>
<linearGradient id="SVGID_3_" gradientUnits="userSpaceOnUse" x1="858.2781" y1="-89.87" x2="858.2781" y2="-84.08" gradientTransform="matrix(1 0 0 -1 -164.05 357.45)">
	<stop  offset="0" style="stop-color:#000000;stop-opacity:0.12"/>
	<stop  offset="0.55" style="stop-color:#000000;stop-opacity:9.000000e-02"/>
	<stop  offset="1" style="stop-color:#000000;stop-opacity:2.000000e-02"/>
</linearGradient>
<path class="st4" d="M694.2,441.5c-3.7,0-3.7,5.8,0,5.8S698,441.5,694.2,441.5z"/>
<linearGradient id="SVGID_4_" gradientUnits="userSpaceOnUse" x1="884.8754" y1="-83.23" x2="884.8754" y2="-65.52" gradientTransform="matrix(1 0 0 -1 -164.05 357.45)">
	<stop  offset="0" style="stop-color:#000000;stop-opacity:0.12"/>
	<stop  offset="0.55" style="stop-color:#000000;stop-opacity:9.000000e-02"/>
	<stop  offset="1" style="stop-color:#000000;stop-opacity:2.000000e-02"/>
</linearGradient>
<path class="st5" d="M720.2,423c-9.6-0.3-18.7,4.4-24,12.4c-1.6,2.5,2.9,4.7,4.5,2.2c4-6.3,11.7-10.3,19.9-10.1
	c8.5,0.3,16.2,4.8,20.7,12c1.6,2.6,5.7,0.2,4.2-2.3C740.4,428.9,730.6,423.2,720.2,423z"/>
<path class="st6" d="M752.2,413.5c-17.7-18.4-47-19-65.5-1.3c-18.4,17.7-19,47-1.3,65.5c15.6,16.2,40.6,18.9,59.2,6.4l33.5,34.8
	c0.9,0.9,2.3,0.9,3.2,0.1c0,0,0,0,0,0l8.3-8c0.9-0.9,0.9-2.3,0.1-3.2c0,0,0,0,0,0L756.2,473C769.4,454.8,767.7,429.8,752.2,413.5z
	 M741.7,469.5c-13.2,12.7-34.2,12.3-46.8-0.9c-12.7-13.2-12.3-34.2,0.9-46.8c13.2-12.7,34.2-12.3,46.8,0.9
	C755.3,435.9,754.9,456.8,741.7,469.5L741.7,469.5z"/>
<path class="st6" d="M694.2,436.5c-3.7,0-3.7,5.8,0,5.8S698,436.5,694.2,436.5z"/>
<path class="st6" d="M720.2,417.9c-9.6-0.3-18.7,4.4-24,12.4c-1.6,2.5,2.9,4.7,4.5,2.2c4-6.3,11.7-10.3,19.9-10.1
	c8.5,0.3,16.2,4.8,20.7,12c1.6,2.6,5.7,0.2,4.2-2.3C740.4,423.8,730.6,418.1,720.2,417.9z"/>
<g id="b66f4108-1dd3-4103-b715-537ec4a4772e">
	
		<linearGradient id="SVGID_5_" gradientUnits="userSpaceOnUse" x1="547.4527" y1="200.89" x2="547.4527" y2="357.351" gradientTransform="matrix(1 0 0 -1 -164.05 357.45)">
		<stop  offset="0" style="stop-color:#808080;stop-opacity:0.25"/>
		<stop  offset="0.54" style="stop-color:#808080;stop-opacity:0.12"/>
		<stop  offset="1" style="stop-color:#808080;stop-opacity:0.1"/>
	</linearGradient>
	<path class="st7" d="M458.1,64h-73v30.2h42c-3.9,19.2-20.3,30.2-42,30.2c-25.5-0.4-46-21.4-45.6-46.9c0.4-25,20.6-45.2,45.6-45.6
		c10.5,0,20.7,3.6,28.8,10.3l22.8-22.8C404.3-9,354.9-5.8,326.4,26.7c-28.5,32.5-25.3,81.9,7.1,110.4c14.3,12.6,32.7,19.5,51.7,19.5
		c39.1,0,74.7-28.5,74.7-78.3C459.8,73.5,459.2,68.7,458.1,64z"/>
</g>
<g>
	<defs>
		<path id="SVGID_6_" d="M447.4,66.1H385V92h36c-3.3,16.5-17.4,25.9-36,25.9c-21.9,0-39.6-17.7-39.6-39.6s17.7-39.6,39.6-39.6l0,0
			c9,0,17.7,3.1,24.7,8.8L429.1,28C401.4,3.6,359,6.3,334.6,34c-24.5,27.8-21.8,70.1,6,94.6c12.3,10.8,28,16.7,44.4,16.7
			c33.5,0,64-24.4,64-67C448.9,74.2,448.4,70.1,447.4,66.1z"/>
	</defs>
	<clipPath id="SVGID_7_">
		<use xlink:href="#SVGID_6_"  style="overflow:visible;"/>
	</clipPath>
	<g class="st8">
		<path class="st9" d="M308.8,117.9V38.7l51.8,39.6L308.8,117.9z"/>
		<path class="st10" d="M308.8,38.7l51.8,39.6l21.3-18.6L455,47.8V5.2H308.8V38.7z"/>
		<path class="st11" d="M308.8,117.9l91.4-70.1l24.1,3L455,5.2v146.2H308.8V117.9z"/>
		<path class="st12" d="M455,151.4l-94.4-73.1l-12.2-9.1L455,38.7V151.4z"/>
	</g>
</g>
<g id="d8826248-d006-481d-80db-43bc27daf51c">
	<g>
		<g>
			
				<linearGradient id="SVGID_8_" gradientUnits="userSpaceOnUse" x1="378.895" y1="26.49" x2="378.895" y2="171.67" gradientTransform="matrix(1 0 0 -1 -164.05 357.45)">
				<stop  offset="0" style="stop-color:#808080;stop-opacity:0.25"/>
				<stop  offset="0.54" style="stop-color:#808080;stop-opacity:0.12"/>
				<stop  offset="1" style="stop-color:#808080;stop-opacity:0.1"/>
			</linearGradient>
			<path class="st13" d="M214.8,185.8c42.5,0,74.9,31.4,74.9,72.6c0,41.1-32.5,72.6-74.9,72.6s-74.9-31.4-74.9-72.6
				C139.9,217.2,172.3,185.8,214.8,185.8z"/>
		</g>
		<g id="cd9086b0-0465-4ddd-b26e-08d7ca60be30">
			<g>
				<g id="aa638075-2341-4c20-8c97-6443789b9aee">
					
						<linearGradient id="SVGID_9_" gradientUnits="userSpaceOnUse" x1="378.04" y1="55" x2="378.04" y2="131.53" gradientTransform="matrix(1 0 0 -1 -164.05 357.45)">
						<stop  offset="0" style="stop-color:#808080;stop-opacity:0.25"/>
						<stop  offset="0.54" style="stop-color:#808080;stop-opacity:0.12"/>
						<stop  offset="1" style="stop-color:#808080;stop-opacity:0.1"/>
					</linearGradient>
					<path class="st14" d="M211.6,233.4c0.2-2.5,0.4-5,0.7-7.5h-57v7.5c5.7,0.4,11.3,0.9,17,1.2c10.8,13.1,21.5,26.2,32.4,39.4v20.3
						c-6.1,0.5-12.2,0.9-18.3,1.4v6.6h56.3v-6.6c-6.1-0.4-12.2-0.5-18.3-0.7c0.2-7.2,0.4-14.5,0.5-21.7c10.6-9.3,21-18.6,31.4-28
						c5.4-0.4,10.8-0.7,16.3-1.2v-8.8c-16,0.2-31.7,0.4-47.7,0.7v7.4c5.9,0.4,11.8,0.5,17.7,0.7c-7.7,6.6-15.4,13.1-23.1,19.7
						c-7.9-9.7-15.8-19.5-23.7-29.2C201.2,234.2,206.4,233.8,211.6,233.4z"/>
				</g>
			</g>
		</g>
		<g id="c909fb51-d884-4b77-9a53-133209191f18">
			<g id="fad3897a-b382-46ab-97cd-992d89cd1312">
				<g id="b723b098-9615-45ec-9744-2c024445d2d9">
					
						<linearGradient id="SVGID_10_" gradientUnits="userSpaceOnUse" x1="481.24" y1="26.66" x2="481.24" y2="166.64" gradientTransform="matrix(1 0 0 -1 -164.05 357.45)">
						<stop  offset="0" style="stop-color:#808080;stop-opacity:0.25"/>
						<stop  offset="0.54" style="stop-color:#808080;stop-opacity:0.12"/>
						<stop  offset="1" style="stop-color:#808080;stop-opacity:0.1"/>
					</linearGradient>
					<path class="st15" d="M342,193l-43.2-2.2c-0.7,34.2-1.4,68.6-2.2,102.9c6.8,0.7,13.8,1.4,20.6,2.1
						C325.4,261.4,333.7,227.1,342,193z M294.6,330.8h24.7v-20.6l-26.9-2.2C293.1,315.7,293.9,323.3,294.6,330.8z"/>
				</g>
			</g>
		</g>
	</g>
</g>
<g id="c54374c9-5ce3-408c-944d-67488ba47ad9">
	<g>
		<path class="st16" d="M217.5,193.3c38.1,0,67.2,28.2,67.2,65.1c0,36.9-29.1,65.1-67.2,65.1s-67.2-28.2-67.2-65.1
			C150.3,221.4,179.4,193.3,217.5,193.3z"/>
		<g id="c03fa78e-fbaa-491c-9ca6-f015ede67acc">
			<g>
				<path id="f24379df-238d-4d18-84fa-01d663e5d57c" class="st1" d="M214.6,236c0.1-2.3,0.3-4.5,0.6-6.8h-51.1v6.8
					c5.1,0.3,10.1,0.8,15.3,1.1c9.6,11.7,19.3,23.5,29.1,35.4v18.2c-5.5,0.5-10.9,0.8-16.4,1.3v5.9h50.5V292
					c-5.5-0.3-10.9-0.5-16.4-0.7c0.2-6.4,0.3-13,0.5-19.4c9.5-8.4,18.8-16.7,28.1-25.1c4.8-0.3,9.6-0.6,14.6-1.1v-7.9
					c-14.3,0.2-28.4,0.3-42.7,0.6v6.6c5.3,0.3,10.6,0.5,15.9,0.6c-6.9,6-13.8,11.7-20.7,17.7c-7.1-8.7-14.1-17.5-21.2-26.2
					C205.3,236.7,209.9,236.4,214.6,236z"/>
			</g>
		</g>
		<g id="bed980a8-54d9-4ead-8aa7-7019110c4f84">
			<g>
				<path class="st16" d="M331.5,199.7l-38.7-1.9c-0.6,30.7-1.3,61.6-1.9,92.3c6.1,0.6,12.4,1.3,18.5,1.9
					C316.7,261.1,324.1,230.4,331.5,199.7z M289,323.3h22.2v-18.5l-24.1-1.9C287.8,309.8,288.4,316.6,289,323.3z"/>
			</g>
		</g>
	</g>
</g>
<g>
	<g>
		
			<linearGradient id="SVGID_11_" gradientUnits="userSpaceOnUse" x1="443.805" y1="209.26" x2="443.805" y2="321.49" gradientTransform="matrix(1 0 0 -1 0 538)">
			<stop  offset="0" style="stop-color:#808080;stop-opacity:0.25"/>
			<stop  offset="0.54" style="stop-color:#808080;stop-opacity:0.12"/>
			<stop  offset="1" style="stop-color:#808080;stop-opacity:0.1"/>
		</linearGradient>
		<polygon class="st17" points="424.5,328.7 398.9,310.8 398.9,216.5 424.6,224.4 424.6,287.8 399.6,310 460.6,278 443.7,270.4 
			432.2,245.6 488.7,262.9 488.7,290.5 		"/>
	</g>
	<g id="adf0c4a8-c861-4f67-ad45-bfc4516b4b15">
		<g>
			
				<linearGradient id="SVGID_12_" gradientUnits="userSpaceOnUse" x1="708.365" y1="50.0591" x2="708.365" y2="122.12" gradientTransform="matrix(1 0 0 -1 -164.05 357.45)">
				<stop  offset="0" style="stop-color:#808080;stop-opacity:0.25"/>
				<stop  offset="0.54" style="stop-color:#808080;stop-opacity:0.12"/>
				<stop  offset="1" style="stop-color:#808080;stop-opacity:0.1"/>
			</linearGradient>
			<path class="st18" d="M530.2,299.3H530v6.9h-7.7v-70.9l7.7,2.3v29.2h0.2c3.8-6.4,9.3-9.5,16.6-9.5c6.1,0,11,2.1,14.4,6.4
				c3.5,4.3,5.2,10,5.2,17.2c0,8-2,14.4-5.8,19.2c-3.9,4.8-9.2,7.2-16,7.2C538.6,307.6,533.1,304.5,530.2,299.3z M530,280v6.7
				c-0.1,3.7,1.3,7.4,3.9,10.1c5.3,5.4,14,5.5,19.5,0.2c0.5-0.4,0.9-0.9,1.3-1.4c2.7-3.6,4-8.5,4-14.8c0-5.3-1.2-9.5-3.7-12.5
				c-2.4-3-6.1-4.7-10-4.5c-4.1-0.2-8.1,1.6-10.8,4.7C531.3,271.6,529.8,275.8,530,280z"/>
		</g>
		<g id="e9bd7740-3bac-4f11-9098-850597dc5964">
			
				<linearGradient id="SVGID_13_" gradientUnits="userSpaceOnUse" x1="744.4659" y1="51.15" x2="744.4659" y2="119.9608" gradientTransform="matrix(1 0 0 -1 -164.05 357.45)">
				<stop  offset="0" style="stop-color:#808080;stop-opacity:0.25"/>
				<stop  offset="0.54" style="stop-color:#808080;stop-opacity:0.12"/>
				<stop  offset="1" style="stop-color:#808080;stop-opacity:0.1"/>
			</linearGradient>
			<path class="st19" d="M580.4,247.4c-1.3,0-2.6-0.5-3.5-1.4c-1-0.9-1.5-2.2-1.5-3.6c-0.1-2.7,2.1-4.9,4.8-5c0.1,0,0.1,0,0.2,0
				c1.3,0,2.6,0.5,3.6,1.4c2,1.9,2,5.1,0,7.1c0,0,0,0,0,0C583,247,581.7,247.5,580.4,247.4z M584.1,306.3h-7.7v-48h7.7V306.3z"/>
		</g>
		<g>
			
				<linearGradient id="SVGID_14_" gradientUnits="userSpaceOnUse" x1="780.785" y1="51.17" x2="780.785" y2="100.18" gradientTransform="matrix(1 0 0 -1 -164.05 357.45)">
				<stop  offset="0" style="stop-color:#808080;stop-opacity:0.25"/>
				<stop  offset="0.54" style="stop-color:#808080;stop-opacity:0.12"/>
				<stop  offset="1" style="stop-color:#808080;stop-opacity:0.1"/>
			</linearGradient>
			<path class="st20" d="M636.6,306.3H629v-27.3c0-10.2-3.7-15.2-11.1-15.2c-3.7-0.1-7.2,1.5-9.5,4.3c-2.6,3-3.9,6.9-3.8,10.9v27.3
				h-7.7v-47.9h7.7v8h0.2c3.6-6.1,8.9-9.1,15.7-9.1c5.2,0,9.2,1.7,12,5.1s4.1,8.3,4.2,14.7L636.6,306.3z"/>
		</g>
		<g id="d360da2a-da29-47f1-af73-68a568081c1c">
			
				<linearGradient id="SVGID_15_" gradientUnits="userSpaceOnUse" x1="832.81" y1="28.601" x2="832.81" y2="100.36" gradientTransform="matrix(1 0 0 -1 -164.05 357.45)">
				<stop  offset="0" style="stop-color:#808080;stop-opacity:0.25"/>
				<stop  offset="0.54" style="stop-color:#808080;stop-opacity:0.12"/>
				<stop  offset="1" style="stop-color:#808080;stop-opacity:0.1"/>
			</linearGradient>
			<path class="st21" d="M691,302.5c0,17.6-8.4,26.4-25.3,26.4c-5.4,0.1-10.7-1-15.6-3.4l2.1-6.9c4.7,2.3,9,3.6,13.3,3.6
				c11.4,0,17.7-6.2,17.7-18.7v-5.2H683c-3.6,6.1-9.1,9.2-16.5,9.2c-5.5,0.2-10.8-2.2-14.4-6.4c-3.6-4.3-5.6-10-5.6-17.2
				c0-8.1,2.1-14.5,6-19.3s9.4-7.3,16.2-7.3c6.5,0,11.1,2.3,14.2,7.5h0.2v-6.3h7.8V302.5z M683.3,284.6v-7.1c0-7.5-6-13.7-13.5-13.8
				c-11.1,0-15.1,10.1-15.2,19.6c0,9.1,4.6,17.2,14.1,17.2S683.1,293.1,683.3,284.6L683.3,284.6z"/>
		</g>
	</g>
</g>
<g id="b32b3bd2-e2ac-448f-8e9d-3efea7831205">
	<path class="st22" d="M431,325.7L407,308.7v-89.2l24.3,7.4v60l-23.6,21l57.6-30.3l-16-7.2L438.4,247l53.4,16.4v26L431,325.7z"/>
	<g id="b78c3c1b-fd7c-4cdd-831f-943502e589c6">
		<path id="a1aaba5c-87d1-494e-b4db-e2424d267e74" class="st22" d="M531,297.9h-0.2v6.6h-7.2v-67l7.2,2.2v27.6h0.2
			c3.6-6,8.8-9,15.7-9c5.8,0,10.4,2,13.6,6.1c3.3,4.1,4.9,9.5,4.9,16.3c0,7.6-1.8,13.6-5.5,18.2s-8.7,6.8-15.1,6.7
			C539,305.7,533.7,302.8,531,297.9z M530.8,279.6v6.3c-0.1,3.5,1.3,7,3.7,9.5c5,5.1,13.2,5.2,18.4,0.2c0.4-0.4,0.8-0.9,1.2-1.4
			c2.5-3.3,3.7-8,3.7-14c0-5-1.2-9-3.5-11.9c-2.3-2.8-5.8-4.4-9.5-4.3c-3.9-0.1-7.6,1.5-10.2,4.4
			C532.1,271.6,530.7,275.6,530.8,279.6L530.8,279.6z"/>
		<path id="c2b46ba4-c904-4cc9-9109-f48bfd422836" class="st22" d="M578.4,248.8c-1.2,0-2.4-0.5-3.3-1.3c-0.9-0.9-1.4-2.1-1.4-3.4
			c0-2.6,2-4.7,4.5-4.7c0,0,0.1,0,0.1,0c1.3,0,2.5,0.5,3.4,1.4c1.9,1.8,1.9,4.8,0,6.7c0,0,0,0,0,0
			C580.9,248.3,579.7,248.8,578.4,248.8z M582,304.5h-7.2v-45.3h7.2V304.5z"/>
		<path id="e38629ea-396c-4cd4-a9ef-8c6412e7dcde" class="st22" d="M631.6,304.5h-7.2v-25.9c0-9.6-3.5-14.4-10.5-14.4
			c-3.5-0.1-6.8,1.4-9,4.1c-2.4,2.9-3.7,6.6-3.6,10.3v25.9H594v-45.3h7.2v7.5h0.2c3.4-5.7,8.4-8.6,14.9-8.6c5,0,8.7,1.6,11.4,4.8
			c2.6,3.2,3.9,7.8,3.9,13.9L631.6,304.5z"/>
		<path id="b7a43e19-a069-4d09-9407-0ca788ab83ee" class="st22" d="M683,300.8c0,16.6-8,24.9-23.9,24.9c-5.1,0.1-10.1-1-14.7-3.2
			l2-6.5c4.4,2.2,8.5,3.4,12.6,3.4c10.8,0,16.7-5.9,16.7-17.7v-5h-0.2c-3.5,5.8-8.7,8.7-15.6,8.7c-5.2,0.2-10.2-2-13.6-6
			c-3.4-4-5.3-9.5-5.3-16.3c0-7.7,2-13.7,5.7-18.3c3.7-4.5,8.9-6.9,15.3-6.9c6.1,0,10.5,2.2,13.5,7.1h0.2v-5.9h7.2V300.8z
			 M675.7,284v-6.7c0-7.1-5.6-12.9-12.7-13.1c-10.5,0-14.2,9.5-14.3,18.6c0,8.6,4.4,16.3,13.3,16.3S675.6,292,675.7,284z"/>
	</g>
</g>
<g>
	<g id="d238b1b1-b934-4f75-9b9b-f38f789b39c3">
		
			<linearGradient id="SVGID_16_" gradientUnits="userSpaceOnUse" x1="858.0582" y1="158.1775" x2="858.0582" y2="213.62" gradientTransform="matrix(1 0 0 -1 -164.05 357.45)">
			<stop  offset="0" style="stop-color:#808080;stop-opacity:0.25"/>
			<stop  offset="0.54" style="stop-color:#808080;stop-opacity:0.12"/>
			<stop  offset="1" style="stop-color:#808080;stop-opacity:0.1"/>
		</linearGradient>
		<path class="st23" d="M698,143.8c-5.3,0-10.8,3.9-10.8,3.9v-2.5c0-0.5-0.2-0.8-0.8-0.8h-6.8c-0.4,0-0.8,0.3-0.9,0.7
			c0,0,0,0.1,0,0.1v53.1c0,0.5,0.2,0.9,0.8,0.9h6.9c0.4,0,0.8-0.4,0.8-0.8c0,0,0-0.1,0-0.1v-45.5c2.2-1.3,4.6-1.9,7.1-2
			c3.7,0,6.6,1.8,6.6,5.6v41.9c0,0.4,0.3,0.8,0.7,0.9c0,0,0.1,0,0.1,0h6.8c0.4,0,0.8-0.4,0.8-0.8c0,0,0-0.1,0-0.1v-44.3
			C709.3,147.4,705.2,143.8,698,143.8z"/>
	</g>
	<g>
		
			<linearGradient id="SVGID_17_" gradientUnits="userSpaceOnUse" x1="898.6483" y1="156.81" x2="898.6483" y2="240.29" gradientTransform="matrix(1 0 0 -1 -164.05 357.45)">
			<stop  offset="0" style="stop-color:#808080;stop-opacity:0.25"/>
			<stop  offset="0.54" style="stop-color:#808080;stop-opacity:0.12"/>
			<stop  offset="1" style="stop-color:#808080;stop-opacity:0.1"/>
		</linearGradient>
		<path class="st24" d="M750.7,117.2H744c-0.4,0-0.8,0.3-0.9,0.7c0,0,0,0.1,0,0.1v26.8c-2.2-0.9-4.5-1.4-6.9-1.5
			c-11,0-18.6,10.5-18.6,30.8c0,17.3,7.3,26.6,16.9,26.6c4,0,7.4-2.3,9.8-4.5l1.5,2.5c0.2,0.4,0.6,0.6,1,0.6h3.9
			c0.4,0,0.8-0.4,0.8-0.8c0,0,0-0.1,0-0.1v-80.4C751.6,117.4,751.3,117.2,750.7,117.2L750.7,117.2z M726.6,172.2
			c0-11.1,3.3-22.2,9.9-22.2c2.4,0,4.7,0.9,6.6,2.4v39.3c-1.8,1.1-3.9,1.7-6,1.8C729.8,193.4,726.6,184.9,726.6,172.2L726.6,172.2z"
			/>
	</g>
	<g>
		
			<linearGradient id="SVGID_18_" gradientUnits="userSpaceOnUse" x1="939.585" y1="157.01" x2="939.585" y2="214.12" gradientTransform="matrix(1 0 0 -1 -164.05 357.45)">
			<stop  offset="0" style="stop-color:#808080;stop-opacity:0.25"/>
			<stop  offset="0.54" style="stop-color:#808080;stop-opacity:0.12"/>
			<stop  offset="1" style="stop-color:#808080;stop-opacity:0.1"/>
		</linearGradient>
		<path class="st25" d="M776.7,143.3c-11.3,0-16.8,14.8-16.8,30.9c0,16.8,7.9,26.3,18.2,26.3c4.2-0.2,8.3-1.3,11.9-3.4
			c0.4-0.2,0.6-0.6,0.4-1l-0.9-3.6c-0.1-0.4-0.4-0.7-0.9-0.7c0,0,0,0,0,0c-2.5,0.6-5,1-7.5,1.1c-8.4,0-12.2-7.4-12.2-17.3v-2.4
			c2.2,0.3,4.4,0.5,6.7,0.6h15.8v-4.6C791.3,152.4,785.4,143.4,776.7,143.3L776.7,143.3z M776.1,166.9c-2.5,0-7,0.6-7,0.6
			s0.1-1.8,0.3-3.5c1-9.2,3.2-13.9,7-13.9c3.3,0,5.6,4.8,6.1,13.1c0.1,1.7,0.1,3.7,0.1,3.7L776.1,166.9L776.1,166.9z"/>
	</g>
	<g id="c697e1ca-ddd9-45ac-9ec9-31a6877d9bb6">
		
			<linearGradient id="SVGID_19_" gradientUnits="userSpaceOnUse" x1="816.7981" y1="156.76" x2="816.7981" y2="214.32" gradientTransform="matrix(1 0 0 -1 -164.05 357.45)">
			<stop  offset="0" style="stop-color:#808080;stop-opacity:0.25"/>
			<stop  offset="0.54" style="stop-color:#808080;stop-opacity:0.12"/>
			<stop  offset="1" style="stop-color:#808080;stop-opacity:0.1"/>
		</linearGradient>
		<path class="st26" d="M665.9,150.2c-2.5-4.9-7-7.1-12.1-7.1c-4.1,0.2-8.1,1.2-11.8,2.8c-0.7,0.3-1.1,0.6-1.1,1.1
			c0,0.4,0.1,0.7,0.3,1l2.3,4.9c0.1,0.4,0.5,0.7,0.9,0.7c0.3,0,0.7-0.2,0.9-0.4c3.3-2.1,5.8-3.3,7.7-3.3c2.6,0,4.3,1.7,5.4,4.3
			c1.1,3,1.5,6.3,1.4,9.5c0,0.5,0,1.1,0,1.1c-2.3-1.2-4.9-1.9-7.6-2c-9.8,0-15.1,9.3-15.1,19.3c0,10.7,6.2,18.6,13.6,18.6
			c4.1,0,7.9-2.4,10.4-5.5c0,0,1.3,3.2,1.5,3.6c0.1,0.4,0.5,0.6,0.9,0.5h4c0.4,0,0.8-0.4,0.8-0.8c0,0,0-0.1,0-0.1v-30.9
			C668.3,159.9,667.9,154.2,665.9,150.2L665.9,150.2z M659.9,190.6c-1.7,1.7-4,2.8-6.4,2.9c-2,0-3.9-1-5-2.8
			c-1.6-2.2-2.3-5.5-2.3-9.2c0-5.9,2.2-11.9,6.8-11.9c2.5,0,4.9,0.9,6.9,2.4L659.9,190.6L659.9,190.6z"/>
	</g>
	<g id="ff4fa252-6ee1-4f25-bde5-0a4b374039a4">
		
			<linearGradient id="SVGID_20_" gradientUnits="userSpaceOnUse" x1="976.1102" y1="158.2097" x2="976.1102" y2="213.0201" gradientTransform="matrix(1 0 0 -1 -164.05 357.45)">
			<stop  offset="0" style="stop-color:#808080;stop-opacity:0.25"/>
			<stop  offset="0.54" style="stop-color:#808080;stop-opacity:0.12"/>
			<stop  offset="1" style="stop-color:#808080;stop-opacity:0.1"/>
		</linearGradient>
		<path class="st27" d="M827,144.4h-6c-0.5,0-1,0.3-1.2,0.8c-0.4,1-2.9,7.7-4,10.5c-0.8,2-2.8,7.7-2.8,7.7h-0.2c0,0-1.5-4.1-2.3-6.2
			c-0.6-1.7-4-10.5-4.4-11.6c-0.2-0.6-0.5-1.2-1.3-1.2h-6.6c-0.6,0-1,0.5-0.9,1.1c0,0.1,0,0.2,0,0.2c0.2,0.5,10.8,24.5,10.8,24.5
			s-11.3,26.9-11.6,27.5c-0.3,0.5-0.1,1.1,0.4,1.4c0.2,0.1,0.3,0.1,0.5,0.1h5.8c1,0,1.4-0.5,1.7-1.4c0.8-2.3,2.1-5.6,3.8-10.6
			c1.2-3.3,3-9.2,3-9.2h0.2c0,0,2,6,2.8,7.9c1.9,4.9,4.3,11.3,4.6,12s0.6,1.2,1.3,1.2h6.5c0.7,0,1-0.7,0.7-1.4
			c-0.7-1.5-7-16.7-11.3-26.7c0,0,11.2-24.8,11.5-25.5S827.9,144.4,827,144.4L827,144.4z"/>
	</g>
	<g>
		
			<linearGradient id="SVGID_21_" gradientUnits="userSpaceOnUse" x1="784.4241" y1="158.3" x2="784.4241" y2="248.37" gradientTransform="matrix(1 0 0 -1 -164.05 357.45)">
			<stop  offset="0" style="stop-color:#808080;stop-opacity:0.25"/>
			<stop  offset="0.54" style="stop-color:#808080;stop-opacity:0.12"/>
			<stop  offset="1" style="stop-color:#808080;stop-opacity:0.1"/>
		</linearGradient>
		<path class="st28" d="M644,109.2h-7.6c-0.5-0.1-1.1,0.3-1.2,0.8c-0.1,0.5-11.4,35-12.2,37.9c-0.6,2-2.5,9.2-2.9,11l-3.9-10.8
			c-1-3-10.1-28.6-10.4-29.6c-0.2-0.6-0.4-1.3-1.4-1.3h-7.4c-0.6,0-1,0.5-1,1c0,0.1,0,0.1,0,0.2c0.2,0.4,13.6,36.2,19,49.8v30
			c0,0.5,0.2,0.9,0.8,0.9h7c0.4,0,0.8-0.4,0.8-0.8c0,0,0-0.1,0-0.1v-29.8c4.5-12.6,21-57.6,21.2-58.1s0.2-1.3-0.8-1.3L644,109.2z"/>
	</g>
</g>
<g id="d1c7a373-120e-4263-88e0-20e0671c3dc9">
	<path class="st29" d="M699,144.6c-4.9,0-10.1,3.6-10.1,3.6v-2.3c0-0.5-0.2-0.7-0.7-0.7h-6.3c-0.4,0-0.8,0.2-0.8,0.6c0,0,0,0,0,0.1
		v49.5c0,0.5,0.2,0.8,0.7,0.8h6.4c0.4,0,0.7-0.3,0.7-0.7c0,0,0-0.1,0-0.1V153c2-1.2,4.3-1.8,6.6-1.9c3.4,0,6.2,1.7,6.2,5.2v39
		c0,0.4,0.3,0.8,0.7,0.8c0,0,0.1,0,0.1,0h6.3c0.4,0,0.7-0.3,0.7-0.7c0,0,0-0.1,0-0.1v-41.2C709.4,147.9,705.6,144.6,699,144.6z"/>
	<path id="c6648a63-5afe-4686-8775-d8042d885f82" class="st29" d="M748,119.8h-6.3c-0.4,0-0.8,0.2-0.8,0.6c0,0,0,0,0,0.1v25
		c-2-0.8-4.2-1.3-6.4-1.4c-10.2,0-17.3,9.8-17.3,28.6c0,16.1,6.8,24.8,15.8,24.8c3.8,0,6.9-2.2,9.2-4.2l1.4,2.3
		c0.1,0.4,0.5,0.6,0.9,0.5h3.6c0.4,0,0.7-0.3,0.7-0.7c0,0,0-0.1,0-0.1v-74.9C748.8,119.9,748.6,119.7,748,119.8L748,119.8z
		 M725.6,171c0-10.4,3-20.7,9.2-20.7c2.2,0,4.4,0.8,6.1,2.3v36.6c-1.7,1-3.6,1.6-5.6,1.6C728.5,190.8,725.6,182.8,725.6,171
		L725.6,171z"/>
	<path class="st29" d="M772.2,144.1c-10.5,0-15.7,13.8-15.7,28.7c0,15.7,7.4,24.5,16.9,24.5c3.9-0.1,7.7-1.2,11.1-3.2
		c0.4-0.2,0.6-0.6,0.4-1l-0.8-3.3c0-0.4-0.4-0.7-0.8-0.6c0,0,0,0,0,0c-2.3,0.6-4.6,0.9-7,1c-7.8,0-11.3-6.9-11.3-16.1v-2.2
		c2.1,0.3,4.1,0.5,6.2,0.5h14.7v-4.2C785.8,152.5,780.3,144.1,772.2,144.1L772.2,144.1z M771.7,166.1c-2.3,0-6.5,0.6-6.5,0.6
		s0.1-1.7,0.3-3.3c0.9-8.6,3-12.9,6.5-12.9c3.1,0,5.2,4.5,5.7,12.2c0.1,1.6,0.1,3.4,0.1,3.4H771.7z"/>
	<path id="b4bb227d-30ce-41b9-90ac-a7d472bb05c4" class="st29" d="M669,150.6c-2.3-4.6-6.5-6.6-11.2-6.6c-3.8,0.2-7.5,1.1-11,2.6
		c-0.6,0.3-1,0.5-1,1c0,0.3,0.1,0.6,0.3,0.9l2.2,4.6c0.1,0.4,0.5,0.6,0.9,0.6c0.3,0,0.6-0.1,0.9-0.3c3.1-2,5.4-3.1,7.2-3.1
		c2.4,0,4,1.6,5,4c1,2.8,1.4,5.8,1.3,8.8c0,0.5,0,1,0,1c-2.2-1.2-4.6-1.8-7-1.9c-9.1,0-14,8.7-14,17.9c0,10,5.8,17.3,12.7,17.3
		c3.8,0,7.3-2.3,9.7-5.1c0,0,1.2,3,1.4,3.3c0.1,0.3,0.4,0.5,0.8,0.5h3.7c0.4,0,0.7-0.3,0.7-0.7c0,0,0-0.1,0-0.1v-28.7
		c0-7-0.4-12.4-2.2-16.1H669z M663.4,188.2c-1.6,1.6-3.7,2.6-5.9,2.7c-1.9,0-3.6-1-4.7-2.6c-1.5-2-2.2-5.1-2.2-8.6
		c0-5.5,2-11.1,6.3-11.1c2.3,0,4.6,0.8,6.4,2.3V188.2z"/>
	<path class="st29" d="M819.1,145.2h-5.6c-0.5,0-1,0.3-1.1,0.8c-0.4,0.9-2.7,7.2-3.7,9.8c-0.7,1.9-2.6,7.2-2.6,7.2h-0.2
		c0,0-1.4-3.9-2.1-5.8c-0.6-1.6-3.7-9.8-4.1-10.8c-0.2-0.5-0.5-1.1-1.2-1.1h-6.2c-0.5,0-0.9,0.4-0.9,0.9c0,0.1,0,0.2,0,0.3
		c0.2,0.5,10,22.8,10,22.8s-10.5,25-10.8,25.6c-0.2,0.5,0,1.1,0.5,1.3c0.1,0,0.2,0.1,0.3,0.1h5.4c0.9,0,1.3-0.5,1.6-1.3
		c0.8-2.2,1.9-5.2,3.6-9.9c1.1-3.1,2.8-8.5,2.8-8.5h0.2c0,0,1.9,5.5,2.6,7.4c1.8,4.6,4,10.6,4.3,11.2s0.6,1.1,1.2,1.1h6.1
		c0.6,0,0.9-0.7,0.6-1.3c-0.7-1.4-6.5-15.6-10.5-24.9c0,0,10.5-23.1,10.7-23.7S819.9,145.1,819.1,145.2L819.1,145.2z"/>
	<path id="c96c6d06-e931-4679-98ae-89e17d7c35f9" class="st30" d="M648.7,112.3h-7.1c-0.5-0.1-1,0.3-1.1,0.8
		c-0.1,0.5-10.6,32.6-11.4,35.3c-0.5,1.9-2.3,8.6-2.7,10.2l-3.7-10c-0.9-2.8-9.4-26.6-9.7-27.6c-0.1-0.5-0.4-1.2-1.3-1.2h-6.9
		c-0.5,0-0.9,0.4-0.9,0.9c0,0.1,0,0.2,0,0.3c0.2,0.4,12.7,33.7,17.7,46.4v28c0,0.5,0.2,0.8,0.7,0.8h6.5c0.4,0,0.7-0.3,0.7-0.7
		c0,0,0-0.1,0-0.1v-27.8c4.2-11.8,19.6-53.6,19.8-54.1S649.6,112.3,648.7,112.3L648.7,112.3z"/>
</g>
</svg>
