<?xml version="1.0" encoding="utf-8"?>
<!-- Generator: Adobe Illustrator 23.1.1, SVG Export Plug-In . SVG Version: 6.00 Build 0)  -->
<svg version="1.1" id="ab9c9524-e61a-4262-9078-30d20f864b6e"
	 xmlns="http://www.w3.org/2000/svg" xmlns:xlink="http://www.w3.org/1999/xlink" x="0px" y="0px" viewBox="0 0 909 556.4"
	 style="enable-background:new 0 0 909 556.4;" xml:space="preserve">
<style type="text/css">
	.st0{fill:#3F3D56;}
	.st1{fill:#F2F2F2;}
	.st2{fill:#FFE000;}
	.st3{fill:#9F616A;}
	.st4{fill:#2F2E41;}
</style>
<title>logo_design</title>
<path class="st0" d="M715.8,318.7l-9.7-8.2l0.9-1.1l0.9,0.8c-0.1-0.5-0.2-1-0.1-1.5c0.1-0.5,0.4-1,0.7-1.4c0.5-0.6,1.1-1,1.8-1.2
	c0.7-0.2,1.5-0.2,2.2,0.1c0.8,0.3,1.5,0.7,2.1,1.2c0.7,0.6,1.2,1.2,1.6,2c0.4,0.7,0.5,1.5,0.4,2.2c-0.1,0.7-0.4,1.4-0.8,1.9
	c-0.3,0.4-0.7,0.7-1.2,0.9c-0.4,0.2-0.8,0.3-1.3,0.2l3.4,2.9L715.8,318.7z M710.5,312.4c0.7,0.7,1.5,1.1,2.5,1.1
	c0.7,0,1.3-0.3,1.8-0.8c0.4-0.5,0.6-1.2,0.5-1.9c-0.2-0.9-0.8-1.8-1.6-2.3c-0.7-0.7-1.5-1.1-2.5-1.1c-0.7,0-1.3,0.2-1.8,0.8
	c-0.4,0.5-0.6,1.3-0.4,1.9C709.2,311,709.8,311.9,710.5,312.4z"/>
<path class="st0" d="M718.8,309.7l-1.5-5.6l-5.4-0.5l1.3-1.5l2.6,0.3c0.5,0.1,0.9,0.1,1.2,0.2c-0.1-0.4-0.2-0.8-0.3-1.2l-0.7-2.6
	l1.2-1.4l1.3,5.2l5.9,0.5l-1.2,1.5l-3.4-0.4l-0.9-0.1l1.2,4.2L718.8,309.7z"/>
<rect x="685.7" y="330.7" transform="matrix(0.6435 -0.7654 0.7654 0.6435 -10.7467 648.3257)" class="st0" width="10" height="10"/>
<rect x="696" y="318.5" transform="matrix(0.6435 -0.7654 0.7654 0.6435 2.298 651.8409)" class="st0" width="10" height="10"/>
<path class="st0" d="M715.8,318.7l-9.7-8.2l0.9-1.1l0.9,0.8c-0.1-0.5-0.2-1-0.1-1.5c0.1-0.5,0.4-1,0.7-1.4c0.5-0.6,1.1-1,1.8-1.2
	c0.7-0.2,1.5-0.2,2.2,0.1c0.8,0.3,1.5,0.7,2.1,1.2c0.7,0.6,1.2,1.2,1.6,2c0.4,0.7,0.5,1.5,0.4,2.2c-0.1,0.7-0.4,1.4-0.8,1.9
	c-0.3,0.4-0.7,0.7-1.2,0.9c-0.4,0.2-0.8,0.3-1.3,0.2l3.4,2.9L715.8,318.7z M710.5,312.4c0.7,0.7,1.5,1.1,2.5,1.1
	c0.7,0,1.3-0.3,1.8-0.8c0.4-0.5,0.6-1.2,0.5-1.9c-0.2-0.9-0.8-1.8-1.6-2.3c-0.7-0.7-1.5-1.1-2.5-1.1c-0.7,0-1.3,0.2-1.8,0.8
	c-0.4,0.5-0.6,1.3-0.4,1.9C709.2,311,709.8,311.9,710.5,312.4z"/>
<path class="st0" d="M718.8,309.7l-1.5-5.6l-5.4-0.5l1.3-1.5l2.6,0.3c0.5,0.1,0.9,0.1,1.2,0.2c-0.1-0.4-0.2-0.8-0.3-1.2l-0.7-2.6
	l1.2-1.4l1.3,5.2l5.9,0.5l-1.2,1.5l-3.4-0.4l-0.9-0.1l1.2,4.2L718.8,309.7z"/>
<rect x="685.7" y="330.7" transform="matrix(0.6435 -0.7654 0.7654 0.6435 -10.7467 648.3257)" class="st0" width="10" height="10"/>
<rect x="696" y="318.5" transform="matrix(0.6435 -0.7654 0.7654 0.6435 2.298 651.8409)" class="st0" width="10" height="10"/>
<rect y="554.4" class="st0" width="909" height="2"/>
<circle class="st1" cx="483.1" cy="82.4" r="11.4"/>
<path class="st1" d="M202.2,116.8c-0.1-9.1-5.8-17.1-14.3-20.3c11.3-4.6,16.7-17.4,12.2-28.6c-4.6-11.3-17.4-16.7-28.6-12.2
	c-11.3,4.6-16.7,17.4-12.2,28.6c2.3,5.7,6.9,10.2,12.7,12.4c-11.3,4.5-16.7,17.4-12.2,28.6c2.3,5.7,6.9,10.2,12.7,12.4
	c-11.3,4.6-16.7,17.4-12.2,28.6c4.6,11.3,17.4,16.7,28.6,12.2c11.3-4.6,16.7-17.4,12.2-28.6c-2.3-5.7-6.9-10.2-12.7-12.4
	C196.9,134.1,202.4,125.9,202.2,116.8z M159.7,76.4c-0.2-11,8.7-20.1,19.7-20.3c11-0.2,20.1,8.7,20.3,19.7
	c0.1,9.3-6.2,17.5-15.2,19.7c-3-0.6-6.1-0.5-9,0.1C166.4,93.7,159.8,85.7,159.7,76.4L159.7,76.4z M200.8,157.8
	c0.2,11-8.7,20.1-19.7,20.3c-11,0.2-20.1-8.7-20.3-19.7c-0.1-9.3,6.2-17.5,15.2-19.7c3,0.6,6.1,0.5,9-0.1
	C194.1,140.6,200.7,148.5,200.8,157.8z M185,136.5c-3-0.6-6.1-0.5-9,0.1c-10.8-2.3-17.6-13-15.3-23.8c1.6-7.5,7.4-13.4,14.8-15.2
	c3,0.6,6.1,0.5,9-0.1c10.8,2.3,17.6,13,15.3,23.8C198.2,128.8,192.4,134.7,185,136.5L185,136.5z"/>
<polygon class="st2" points="106.2,198.8 89.7,198.8 89.7,391.5 89.7,408 106.2,408 194.6,408 194.6,391.5 106.2,391.5 "/>
<path class="st2" d="M252.1,198.8h-16.5V408h105V198.8H252.1z M324,391.5h-71.9V215.4H324V391.5z"/>
<path class="st2" d="M630.6,199.2h-88.4v209.2h105V199.2H630.6z M630.6,391.9h-71.9V215.7h71.9V391.9z"/>
<polygon class="st2" points="468.9,303.4 455.2,303.4 455.2,320 468.9,320 468.9,391.9 397,391.9 397,215.7 485.4,215.7 
	485.4,199.2 397,199.2 380.5,199.2 380.5,215.7 380.5,391.9 380.5,408.4 397,408.4 468.9,408.4 485.4,408.4 485.4,391.9 485.4,320 
	499.1,320 499.1,303.4 485.4,303.4 "/>
<rect x="150.9" y="180.2" class="st0" width="5.3" height="1.8"/>
<path class="st0" d="M569.8,182h-10.9v-1.8h10.9V182z M548,182h-10.9v-1.8H548V182z M526.2,182h-10.9v-1.8h10.9V182z M504.5,182
	h-10.9v-1.8h10.9L504.5,182z M482.7,182h-10.9v-1.8h10.9L482.7,182z M460.9,182H450v-1.8h10.9L460.9,182z M439.2,182h-10.9v-1.8
	h10.9L439.2,182z M417.4,182h-10.9v-1.8h10.9L417.4,182z M395.6,182h-10.9v-1.8h10.9L395.6,182z M373.9,182H363v-1.8h10.9L373.9,182
	z M352.1,182h-10.9v-1.8h10.9L352.1,182z M330.3,182h-10.9v-1.8h10.9L330.3,182z M308.6,182h-10.9v-1.8h10.9L308.6,182z M286.8,182
	h-10.9v-1.8h10.9L286.8,182z M265,182h-10.9v-1.8H265L265,182z M243.3,182h-10.9v-1.8h10.9L243.3,182z M221.5,182h-10.9v-1.8h10.9
	L221.5,182z M199.7,182h-10.9v-1.8h10.9L199.7,182z M178,182h-10.9v-1.8H178L178,182z"/>
<rect x="580.6" y="180.2" class="st0" width="5.3" height="1.8"/>
<rect x="664.2" y="226.3" class="st0" width="1.8" height="5.3"/>
<path class="st0" d="M665.9,364.5h-1.8v-11.1h1.8V364.5z M665.9,342.4h-1.8v-11.1h1.8V342.4z M665.9,320.2h-1.8v-11.1h1.8V320.2z
	 M665.9,298.1h-1.8V287h1.8V298.1z M665.9,275.9h-1.8v-11.1h1.8V275.9z M665.9,253.8h-1.8v-11.1h1.8V253.8z"/>
<rect x="664.2" y="375.6" class="st0" width="1.8" height="5.3"/>
<rect x="89.1" y="119.3" class="st1" width="1.8" height="368.6"/>
<rect x="646.4" y="119.1" class="st1" width="1.8" height="368.6"/>
<rect x="0.7" y="407.1" class="st1" width="735.5" height="1.8"/>
<rect x="0.5" y="197.9" class="st1" width="735.5" height="1.8"/>
<path class="st3" d="M792.1,110.5c0.1,1.2-0.2,2.5-0.7,3.6c-0.7,1.1-1.7,2-2.8,2.6l-8.1,5.4c-2.4,1.6-5.1,4.5-3.5,6.9
	c0.6,0.8,1.4,1.4,2.3,1.7c8.3,4,17.7,4.7,26.9,4.6c5.9-0.1,12-0.6,16.9-3.7c2.4-1.5,4.4-3.5,7-4.6c1.8-0.7,4.1-1.2,4.6-3.1
	c0.6-2.5-2.7-3.9-5.1-4.9c-5.2-2.2-8.7-7.1-10.4-12.5s-1.7-11-1.4-16.6c0.1-0.8,0-1.6-0.5-2.3c-0.5-0.4-1.2-0.7-1.9-0.7
	c-5.6-0.6-11.2-0.7-16.7-0.3c-2.1,0-4.1,0.5-5.9,1.5c-3.4,2.3-1.5,6.3-1.1,9.5C792,102,792.1,106.2,792.1,110.5z"/>
<path class="st4" d="M827,0c-3.1,3.5-7.4,5.7-12,6.3c-8,1.1-1.7,13.7-1.7,13.7s-2.3-4.6,2.3-8.6S827,5.1,827,0z"/>
<circle class="st4" cx="811.6" cy="22.7" r="9.9"/>
<path class="st2" d="M823.1,32.4c-7.6-4-20.8-7.1-27.7-6.9l1.8-6.7c6.2,4.2,19.2,7.4,27.7,6.9L823.1,32.4z"/>
<circle class="st4" cx="801.1" cy="60.4" r="35.4"/>
<rect x="774.1" y="503.9" class="st3" width="16.3" height="27.9"/>
<rect x="821.1" y="503.9" class="st3" width="16.3" height="27.9"/>
<polygon class="st3" points="770,215.2 762.1,241.5 842,243.1 835.7,215.2 814.7,201.3 "/>
<circle class="st3" cx="797.9" cy="75.8" r="25.6"/>
<path class="st3" d="M751.1,181.3c-1.8,4.5-2.7,9.4-2.6,14.3c0.2,5.7,2,12.9,0.9,17.9c-4.3,19.1-10.6,47.3-22,62.8
	c-2.7,3.6-7.9,5.6-11.9,8.4c-4,2.7-7.8,5.7-9.9,10.6c-1.7,3.8-1.6,8.4-1.5,12.6c0.1,2.4,0.3,5.1,2.3,6.6c0.9-0.4,1.4-1.2,1.4-2.2
	c0.1-1-0.1-2,0.1-3c0.4-1.8,1.6-3.3,3.2-4.1c9.3-5.8,19.3-10.8,24.3-20.8c4.9-10,8.7-19,15.4-27.8c1.9-2.2,3.6-4.6,5.3-7
	c2.6-4.5,4.6-9.3,5.8-14.3c2.7-10.5,4-21.6,4.8-32.3c0.4-5.5,0.4-11.4-3.8-14.9C759,184.7,754.3,185.1,751.1,181.3z"/>
<path class="st3" d="M866.6,169c1.3,4.8,1.8,9.9,1.3,14.9c-0.6,6-2.5,12.1-1.6,18.1c3.3,23.3-0.3,47.3,1.6,70.7
	c0.4,5.5,2.2,11.6,2.5,17.1c0.3,5.5-0.3,11.3-3.1,16c-2.2,3.7-5.5,6.5-8.8,9.3c-1.8,1.5-4.2,3.2-6.3,2.2c-0.4-0.9-0.2-1.9,0.6-2.6
	c0.6-0.7,1.5-1.2,2.1-1.9c1.1-1.4,1.1-3.4,1-5.2c-0.8-10.8-2.3-21.8,0.6-32.2c2.9-10.4,1.1-21.7-1.9-32.1c-0.8-2.8-1.8-5.5-2.5-8.3
	c-1.2-4.8-1.3-9.9-1.5-14.9l-0.8-30.8c-0.1-5.3,0.2-11.4,4.6-14.3C858.3,172.3,863.4,172.7,866.6,169z"/>
<path class="st4" d="M842,231.7c-5.2,2.8-10.5,5.7-16.2,7.3c-6,1.7-12.3,1.9-18.5,2.1c-7.4,0.7-14.9-0.3-21.8-3.1l-22.6-7.7
	c-16,38.4-22.3,80.9-13.6,121.6c3.2,14.8-0.2,30.1-0.1,45.3c-0.1,5.4,0.1,10.7,0.6,16.1c0.4,4.1,1.2,8.2,1.8,12.3
	c3.3,25-2.7,50.7,1.1,75.6c0.5,3.4,4.7,5.3,8,6.4c1.7,0.5,3.4,0.8,5.1,1c8.8,1.3,17.6,2.6,26.4,1.7c2.2-0.2,4.7-0.9,5.4-2.9
	c0.5-1.6-0.4-3.6,0.5-5.1c5.7-9.4,1.5-22.3,2-33.3c1.6-29.1-0.3-58.3,2.3-87.3c0.5-5.5-0.2-10.4,0.3-16l0.3-3.8l1-11.5
	c0.6,16,1.3,31.5,1.9,47.5c0.2,4.6,0.4,9.3,1.7,13.8c0.7,2.4,1.8,4.6,2.4,7c0.5,2.6,0.8,5.2,0.8,7.8l2.6,70.3c0,2.5-0.2,5.1-0.5,7.6
	c-0.3,2.9-0.3,6.3,2,8.1c1.2,0.8,2.6,1.3,4,1.3c4.3,0.4,8.6-0.4,12.9-1.1c4.3-0.8,13.3-1.5,17.6-2.3c0.7-0.1,1.3-0.3,1.9-0.5
	c1.9-1,2.4-3.6,2.2-5.7s-0.8-4.4-0.1-6.5c8.7-26.9-1.9-56.5,0.1-84.8c1.8-25.2,1.5-50.4,1.3-75.6c-0.1-14.9-1.2-29.5-0.8-44.4
	c0.4-18.2,1.7-37.2-6-53.7C846.5,236.2,844.7,233.5,842,231.7z"/>
<path class="st4" d="M792.7,521.3c0,0-16.8-8.1-19.8,0s-8.7,27.3-2.3,31.9l0,0c4.2,3.1,9.7,3.7,14.5,1.7c4.1-1.8,8.2-4,7.6-5.7
	C791.5,545.7,792.7,521.3,792.7,521.3z"/>
<path class="st4" d="M818.8,521.3c0,0,16.8-8.1,19.8,0s8.7,27.3,2.3,31.9l0,0c-4.2,3.1-9.7,3.7-14.5,1.7c-4.1-1.8-8.2-4-7.6-5.7
	C820,545.7,818.8,521.3,818.8,521.3z"/>
<path class="st4" d="M839.7,123.5c-24.4-0.4-48.7,0.5-73,2.8c-1.8,0.1-3.6,0.5-5.2,1.2c-1.4,0.8-2.6,1.9-3.6,3.2
	c-10.9,13-17.1,29.2-17.9,46.2c-0.1,2.2,0,4.6,1.5,6.2c6.7,7.3,15.2,12.6,20.6,21c1.2,2.3,2.7,4.4,4.5,6.3c-1,6-1.1,12.1-0.4,18.1
	c3.5-4.6,8.8-7.6,14.3-9.4s11.3-2.5,17.1-3.1c8.4-1,17.4-1.8,24.9,2.1c5.9,3.1,10.2,8.9,16.4,11.3c0.8-5.2,1.3-10.4,1.4-15.7
	c0.2-7.4,5.7-12.8,8.6-19.6c0.8-2,1.8-3.9,2.9-5.8c2.9-4.5,7.8-7.5,12.8-9.3s10.5-2.4,15.8-3.1c2.4-3.4,1.6-7.8,0-11.6
	s-4.5-7-6.9-10.4c-4.7-6.6-8.1-14.2-13.3-20.4C855.1,127.3,847.6,123.7,839.7,123.5z"/>
<path class="st4" d="M808.2,35.7c0,0-12,15.5-36.1,18.9S767,95.8,767,95.8s-6.9-13.7,6.9-25.8S808.2,51.2,808.2,35.7z"/>
<path class="st4" d="M808.2,35.7c0,0,6.9,24,17.2,27.5s5.2,39.5-12,42.9c0,0,14.6-19.7,6-35.2S805.7,43.5,808.2,35.7z"/>
<path class="st4" d="M808.2,35.7c0,0-12,15.5-36.1,18.9S767,95.8,767,95.8s-6.9-13.7,6.9-25.8S808.2,51.2,808.2,35.7z"/>
<path class="st4" d="M808.2,35.7c0,0,6.9,24,17.2,27.5s5.2,39.5-12,42.9c0,0,14.6-19.7,6-35.2S805.7,43.5,808.2,35.7z"/>
<path class="st0" d="M384.8,166.5v-12.7h1.4v1.2c0.3-0.4,0.7-0.8,1.1-1.1c0.5-0.2,1-0.4,1.5-0.4c0.7,0,1.5,0.2,2.1,0.6
	c0.6,0.4,1.1,1,1.4,1.7c0.3,0.8,0.5,1.6,0.5,2.4c0,0.9-0.2,1.7-0.5,2.5c-0.3,0.7-0.8,1.3-1.5,1.7c-0.6,0.4-1.3,0.6-2,0.6
	c-0.5,0-1-0.1-1.4-0.3c-0.4-0.2-0.7-0.5-1-0.8v4.5H384.8z M386.2,158.4c-0.1,0.9,0.2,1.9,0.7,2.6c0.4,0.5,1.1,0.8,1.7,0.8
	c0.7,0,1.4-0.3,1.8-0.9c0.6-0.8,0.8-1.8,0.7-2.7c0.1-0.9-0.2-1.9-0.7-2.6c-0.4-0.5-1-0.9-1.7-0.9c-0.7,0-1.4,0.4-1.8,0.9
	C386.4,156.5,386.2,157.5,386.2,158.4L386.2,158.4z"/>
<path class="st0" d="M393.6,163l3.4-4.8l-3.1-4.4h1.9l1.4,2.2c0.3,0.4,0.5,0.8,0.6,1c0.3-0.4,0.5-0.7,0.7-1l1.5-2.2h1.9l-3.2,4.3
	l3.4,4.9h-1.9l-1.9-2.9l-0.5-0.8l-2.4,3.6L393.6,163z"/>
<rect x="334.6" y="153.2" class="st0" width="10" height="10"/>
<rect x="350.6" y="153.2" class="st0" width="10" height="10"/>
<rect x="366.6" y="153.2" class="st0" width="10" height="10"/>
</svg>
