<?xml version="1.0" encoding="utf-8"?>
<!-- Generator: Adobe Illustrator 23.1.1, SVG Export Plug-In . SVG Version: 6.00 Build 0)  -->
<svg version="1.1" id="f6245ee5-e739-4f07-8284-f5c00440f05d"
	 xmlns="http://www.w3.org/2000/svg" xmlns:xlink="http://www.w3.org/1999/xlink" x="0px" y="0px" viewBox="0 0 871.9 596.6"
	 style="enable-background:new 0 0 871.9 596.6;" xml:space="preserve">
<style type="text/css">
	.st0{fill:url(#SVGID_1_);}
	.st1{fill:#FFFFFF;}
	.st2{fill:#F5F5F5;}
	.st3{fill:url(#SVGID_2_);}
	.st4{fill:url(#SVGID_3_);}
	.st5{fill:url(#SVGID_4_);}
	.st6{fill:#FFE000;}
	.st7{fill:#E0E0E0;}
</style>
<title>Search</title>
<linearGradient id="SVGID_1_" gradientUnits="userSpaceOnUse" x1="435.9543" y1="434.7733" x2="435.9543" y2="596" gradientTransform="matrix(1 0 0 -1 0 596)">
	<stop  offset="0" style="stop-color:#808080;stop-opacity:0.25"/>
	<stop  offset="0.5351" style="stop-color:#808080;stop-opacity:0.12"/>
	<stop  offset="1" style="stop-color:#808080;stop-opacity:0.1"/>
</linearGradient>
<rect class="st0" width="871.9" height="161.2"/>
<rect x="5.1" y="5.3" class="st1" width="860.5" height="147.4"/>
<rect x="57.9" y="35.4" class="st2" width="500.2" height="87.7"/>
<linearGradient id="SVGID_2_" gradientUnits="userSpaceOnUse" x1="895.4195" y1="297.2647" x2="895.4195" y2="417.5608" gradientTransform="matrix(1 0 0 -1 -164.0457 444.3)">
	<stop  offset="0" style="stop-color:#B3B3B3;stop-opacity:0.25"/>
	<stop  offset="0.5351" style="stop-color:#B3B3B3;stop-opacity:0.1"/>
	<stop  offset="1" style="stop-color:#B3B3B3;stop-opacity:5.000000e-02"/>
</linearGradient>
<path class="st3" d="M752.2,41c-17.7-18.4-47-19-65.5-1.3c-18.4,17.7-19,47-1.3,65.5c15.6,16.2,40.5,18.9,59.2,6.4l33.5,34.8
	c0.9,0.9,2.3,0.9,3.2,0.1l0,0l8.3-8c0.9-0.9,0.9-2.3,0.1-3.2l-33.5-34.8C769.4,82.2,767.7,57.2,752.2,41z M741.7,96.9
	c-13.2,12.7-34.2,12.3-46.8-0.9s-12.3-34.2,0.9-46.8c13.2-12.7,34.2-12.3,46.8,0.9S754.9,84.3,741.7,96.9L741.7,96.9z"/>
<linearGradient id="SVGID_3_" gradientUnits="userSpaceOnUse" x1="858.2828" y1="374.6566" x2="858.2828" y2="380.4464" gradientTransform="matrix(1 0 0 -1 -164.0457 444.3)">
	<stop  offset="0" style="stop-color:#000000;stop-opacity:0.12"/>
	<stop  offset="0.5513" style="stop-color:#000000;stop-opacity:9.000000e-02"/>
	<stop  offset="1" style="stop-color:#000000;stop-opacity:2.000000e-02"/>
</linearGradient>
<path class="st4" d="M694.2,63.9c-3.7,0-3.7,5.8,0,5.8C698,69.6,698,63.9,694.2,63.9z"/>
<linearGradient id="SVGID_4_" gradientUnits="userSpaceOnUse" x1="884.8759" y1="381.2988" x2="884.8759" y2="399.0072" gradientTransform="matrix(1 0 0 -1 -164.0457 444.3)">
	<stop  offset="0" style="stop-color:#000000;stop-opacity:0.12"/>
	<stop  offset="0.5513" style="stop-color:#000000;stop-opacity:9.000000e-02"/>
	<stop  offset="1" style="stop-color:#000000;stop-opacity:2.000000e-02"/>
</linearGradient>
<path class="st5" d="M720.2,45.3c-9.6-0.3-18.7,4.4-24,12.4c-1.6,2.5,2.9,4.7,4.5,2.2c4-6.3,11.7-10.3,19.9-10.1
	c8.5,0.3,16.2,4.8,20.7,12c1.6,2.6,5.7,0.2,4.2-2.4C740.4,51.2,730.6,45.5,720.2,45.3z"/>
<path class="st6" d="M752.2,35.9c-17.7-18.4-47-19-65.5-1.3c-18.4,17.7-19,47-1.3,65.5c15.6,16.2,40.5,18.9,59.2,6.4l33.5,34.8
	c0.9,0.9,2.3,0.9,3.2,0.1l8.3-8c0.9-0.9,0.9-2.3,0.1-3.2l-33.5-34.8C769.4,77.1,767.7,52.1,752.2,35.9z M741.7,91.9
	c-13.2,12.7-34.2,12.3-46.8-0.9s-12.3-34.2,0.9-46.8C709,31.4,730,31.8,742.7,45C755.3,58.2,754.9,79.2,741.7,91.9L741.7,91.9z"/>
<path class="st6" d="M694.2,58.8c-3.7,0-3.7,5.8,0,5.8C698,64.6,698,58.8,694.2,58.8z"/>
<path class="st6" d="M720.2,40.2c-9.6-0.3-18.7,4.4-24,12.4c-1.6,2.5,2.9,4.7,4.5,2.2c4-6.3,11.7-10.3,19.9-10.1
	c8.5,0.3,16.2,4.8,20.7,12c1.6,2.6,5.7,0.2,4.2-2.4C740.4,46.1,730.6,40.4,720.2,40.2z"/>
<rect x="4.9" y="240.6" class="st7" width="867" height="59"/>
<rect x="4.9" y="339.6" class="st7" width="867" height="59"/>
<rect x="4.9" y="438.6" class="st7" width="867" height="59"/>
<rect x="4.9" y="537.6" class="st7" width="867" height="59"/>
</svg>
