<?xml version="1.0" encoding="utf-8"?>
<!-- Generator: Adobe Illustrator 23.1.1, SVG Export Plug-In . SVG Version: 6.00 Build 0)  -->
<svg version="1.1" id="Capa_1" xmlns="http://www.w3.org/2000/svg" xmlns:xlink="http://www.w3.org/1999/xlink" x="0px" y="0px"
	 viewBox="0 0 946 662.8" style="enable-background:new 0 0 946 662.8;" xml:space="preserve">
<style type="text/css">
	.st0{fill:url(#SVGID_1_);}
	.st1{fill:#F5F5F5;}
	.st2{fill:#E0E0E0;}
	.st3{fill:url(#SVGID_2_);}
	.st4{fill:url(#SVGID_3_);}
	.st5{fill:#FFFFFF;}
	.st6{fill:#FFE000;}
	.st7{fill:url(#SVGID_4_);}
	.st8{fill:url(#SVGID_5_);}
	.st9{fill:#DDBD03;}
	.st10{fill:url(#SVGID_6_);}
	.st11{fill:url(#SVGID_7_);}
	.st12{fill:url(#SVGID_8_);}
	.st13{fill:url(#SVGID_9_);}
	.st14{fill:url(#SVGID_10_);}
	.st15{fill:url(#SVGID_11_);}
	.st16{fill:url(#SVGID_12_);}
	.st17{opacity:0.8;fill:#FFE000;enable-background:new    ;}
</style>
<title>pcsocial</title>
<linearGradient id="SVGID_1_" gradientUnits="userSpaceOnUse" x1="473" y1="200.8" x2="473" y2="161.16" gradientTransform="matrix(1 0 0 1 0 462)">
	<stop  offset="0" style="stop-color:#808080;stop-opacity:0.25"/>
	<stop  offset="0.54" style="stop-color:#808080;stop-opacity:0.12"/>
	<stop  offset="1" style="stop-color:#808080;stop-opacity:0.1"/>
</linearGradient>
<rect y="623.2" class="st0" width="946" height="39.6"/>
<rect x="3.2" y="623.2" class="st1" width="938.5" height="33.2"/>
<path class="st2" d="M549.7,485.1c0,0,13.6,91.8,93.9,122.4H318.5c80.3-30.6,93.9-122.4,93.9-122.4H549.7z"/>
<linearGradient id="SVGID_2_" gradientUnits="userSpaceOnUse" x1="480.9" y1="165" x2="480.9" y2="145.6" gradientTransform="matrix(1 0 0 1 0 462)">
	<stop  offset="0" style="stop-color:#808080;stop-opacity:0.25"/>
	<stop  offset="0.54" style="stop-color:#808080;stop-opacity:0.12"/>
	<stop  offset="1" style="stop-color:#808080;stop-opacity:0.1"/>
</linearGradient>
<rect x="316.8" y="607.6" class="st3" width="328.2" height="19.4"/>
<rect x="318.5" y="607.6" class="st1" width="325.2" height="15"/>
<linearGradient id="SVGID_3_" gradientUnits="userSpaceOnUse" x1="608.0492" y1="175.09" x2="608.0492" y2="-188.41" gradientTransform="matrix(1 0 0 1 -127 343.41)">
	<stop  offset="0" style="stop-color:#808080;stop-opacity:0.25"/>
	<stop  offset="0.54" style="stop-color:#808080;stop-opacity:0.12"/>
	<stop  offset="1" style="stop-color:#808080;stop-opacity:0.1"/>
</linearGradient>
<path class="st4" d="M745.4,155H216.6c-5.9,0-10.7,4.9-10.6,10.8l0,0v311.3c0,22.9,18.2,41.4,40.6,41.4h468.9
	c22.4,0,40.6-18.5,40.6-41.4V165.8C756.1,159.9,751.4,155.1,745.4,155z"/>
<path class="st5" d="M223.4,163.7h515.2c5.9,0,10.8,4.8,10.8,10.8l0,0v286.2l0,0H212.7l0,0V174.5
	C212.7,168.5,217.5,163.7,223.4,163.7L223.4,163.7z"/>
<path class="st1" d="M708.2,509.6H253.8c-22.7,0-41.1-18.4-41.1-41.2l0,0v-7.8h536.7v7.8C749.4,491.2,731,509.6,708.2,509.6
	L708.2,509.6z"/>
<rect x="239.2" y="187.8" class="st6" width="485.7" height="239.7"/>
<linearGradient id="SVGID_4_" gradientUnits="userSpaceOnUse" x1="275.9" y1="281.89" x2="275.9" y2="184.39" gradientTransform="matrix(1 0 0 1 -127 343.41)">
	<stop  offset="0" style="stop-color:#808080;stop-opacity:0.25"/>
	<stop  offset="0.54" style="stop-color:#808080;stop-opacity:0.12"/>
	<stop  offset="1" style="stop-color:#808080;stop-opacity:0.1"/>
</linearGradient>
<path class="st7" d="M186.2,625.3h-74.6c-2.5,0-4.5-2-4.5-4.5v-93h83.6v93C190.7,623.3,188.7,625.3,186.2,625.3z"/>
<linearGradient id="SVGID_5_" gradientUnits="userSpaceOnUse" x1="235.5" y1="257.29" x2="235.5" y2="194.0901" gradientTransform="matrix(1 0 0 1 -127 343.41)">
	<stop  offset="0" style="stop-color:#808080;stop-opacity:0.25"/>
	<stop  offset="0.54" style="stop-color:#808080;stop-opacity:0.12"/>
	<stop  offset="1" style="stop-color:#808080;stop-opacity:0.1"/>
</linearGradient>
<path class="st8" d="M108.5,600.7c-13.7,0-24.9-14.2-24.9-31.6c0-17.4,11.2-31.6,24.9-31.6s24.9,14.2,24.9,31.6
	S122.2,600.7,108.5,600.7z M108.5,543.2c-10.7,0-19.4,11.6-19.4,25.9s8.7,25.9,19.4,25.9s19.4-11.6,19.4-25.9
	S119.2,543.2,108.5,543.2z"/>
<path class="st9" d="M109.3,598c-13.3,0-24.1-13.2-24.1-29.5c0-16.2,10.8-29.5,24.1-29.5s24.1,13.2,24.1,29.5
	C133.4,584.8,122.6,598,109.3,598z M109.3,544.4c-10.3,0-18.8,10.8-18.8,24.1s8.4,24.1,18.8,24.1s18.7-10.8,18.7-24.1
	S119.6,544.4,109.3,544.4L109.3,544.4z"/>
<path class="st6" d="M109,528.9h79.9l0,0v88.7c0,2.5-2,4.5-4.5,4.5h-70.9c-2.5,0-4.5-2-4.5-4.5L109,528.9L109,528.9z"/>
<g>
	<linearGradient id="SVGID_6_" gradientUnits="userSpaceOnUse" x1="835.5101" y1="378.2631" x2="840.3906" y2="378.2631">
		<stop  offset="0" style="stop-color:#808080;stop-opacity:0.25"/>
		<stop  offset="0.54" style="stop-color:#808080;stop-opacity:0.12"/>
		<stop  offset="1" style="stop-color:#808080;stop-opacity:0.1"/>
	</linearGradient>
	<path class="st10" d="M836.6,358.6h2.6c0.6,0,1.1,0.5,1.1,1.1v37.2c0,0.6-0.5,1.1-1.1,1.1h-2.6c-0.6,0-1.1-0.5-1.1-1.1v-37.2
		C835.5,359,836,358.6,836.6,358.6z"/>
	<linearGradient id="SVGID_7_" gradientUnits="userSpaceOnUse" x1="673.0273" y1="334.2253" x2="675.788" y2="334.2253">
		<stop  offset="0" style="stop-color:#808080;stop-opacity:0.25"/>
		<stop  offset="0.54" style="stop-color:#808080;stop-opacity:0.12"/>
		<stop  offset="1" style="stop-color:#808080;stop-opacity:0.1"/>
	</linearGradient>
	<path class="st11" d="M674.2,327.7h0.5c0.6,0,1.1,0.5,1.1,1.1v10.7c0,0.6-0.5,1.1-1.1,1.1h-0.5c-0.6,0-1.1-0.5-1.1-1.1v-10.7
		C673,328.2,673.5,327.7,674.2,327.7z"/>
	<linearGradient id="SVGID_8_" gradientUnits="userSpaceOnUse" x1="672.9288" y1="362.7331" x2="676.0344" y2="362.7331">
		<stop  offset="0" style="stop-color:#808080;stop-opacity:0.25"/>
		<stop  offset="0.54" style="stop-color:#808080;stop-opacity:0.12"/>
		<stop  offset="1" style="stop-color:#808080;stop-opacity:0.1"/>
	</linearGradient>
	<path class="st12" d="M674.1,351.4h0.8c0.6,0,1.1,0.5,1.1,1.1v20.4c0,0.6-0.5,1.1-1.1,1.1h-0.8c-0.6,0-1.1-0.5-1.1-1.1v-20.4
		C672.9,352,673.4,351.4,674.1,351.4z"/>
	<linearGradient id="SVGID_9_" gradientUnits="userSpaceOnUse" x1="672.978" y1="393.3116" x2="675.9359" y2="393.3116">
		<stop  offset="0" style="stop-color:#808080;stop-opacity:0.25"/>
		<stop  offset="0.54" style="stop-color:#808080;stop-opacity:0.12"/>
		<stop  offset="1" style="stop-color:#808080;stop-opacity:0.1"/>
	</linearGradient>
	<path class="st13" d="M674.1,381.9h0.7c0.6,0,1.1,0.5,1.1,1.1v20.6c0,0.6-0.5,1.1-1.1,1.1h-0.7c-0.6,0-1.1-0.5-1.1-1.1V383
		C673,382.4,673.5,381.9,674.1,381.9z"/>
	<linearGradient id="SVGID_10_" gradientUnits="userSpaceOnUse" x1="674.5555" y1="447.2452" x2="838.1229" y2="447.2452">
		<stop  offset="0" style="stop-color:#808080;stop-opacity:0.25"/>
		<stop  offset="0.54" style="stop-color:#808080;stop-opacity:0.12"/>
		<stop  offset="1" style="stop-color:#808080;stop-opacity:0.1"/>
	</linearGradient>
	<path class="st14" d="M693.8,284.9h125.1c10.6,0,19.2,8.4,19.2,18.8v287.1c0,10.4-8.6,18.8-19.2,18.8H693.8
		c-10.6,0-19.2-8.4-19.2-18.8V303.7C674.6,293.3,683.2,284.9,693.8,284.9z"/>
	<linearGradient id="SVGID_11_" gradientUnits="userSpaceOnUse" x1="740.5641" y1="296.9052" x2="763.438" y2="296.9052">
		<stop  offset="0" style="stop-color:#808080;stop-opacity:0.25"/>
		<stop  offset="0.54" style="stop-color:#808080;stop-opacity:0.12"/>
		<stop  offset="1" style="stop-color:#808080;stop-opacity:0.1"/>
	</linearGradient>
	<path class="st15" d="M742.5,294.6h19c1,0,1.9,0.8,1.9,1.9v0.8c0,1-0.8,1.9-1.9,1.9h-19c-1,0-1.9-0.8-1.9-1.9v-0.8
		C740.6,295.4,741.5,294.6,742.5,294.6z"/>
	<linearGradient id="SVGID_12_" gradientUnits="userSpaceOnUse" x1="766.8888" y1="296.8811" x2="772.1143" y2="296.8811">
		<stop  offset="0" style="stop-color:#808080;stop-opacity:0.25"/>
		<stop  offset="0.54" style="stop-color:#808080;stop-opacity:0.12"/>
		<stop  offset="1" style="stop-color:#808080;stop-opacity:0.1"/>
	</linearGradient>
	<ellipse class="st16" cx="769.5" cy="296.9" rx="2.6" ry="2.6"/>
</g>
<g>
	<path class="st5" d="M831.4,361.2h2.5c0.6,0,1.1,0.5,1.1,1.1v35.8c0,0.6-0.5,1.1-1.1,1.1h-2.5c-0.6,0-1.1-0.5-1.1-1.1v-35.8
		C830.4,361.7,830.8,361.2,831.4,361.2z"/>
	<path class="st5" d="M678.4,331.5h0.5c0.6,0,1.1,0.5,1.1,1.1v10.4c0,0.6-0.5,1.1-1.1,1.1h-0.5c-0.6,0-1.1-0.5-1.1-1.1v-10.4
		C677.3,331.9,677.8,331.5,678.4,331.5z"/>
	<path class="st5" d="M678.3,354.3h0.8c0.6,0,1.1,0.5,1.1,1.1V375c0,0.6-0.5,1.1-1.1,1.1h-0.8c-0.6,0-1.1-0.5-1.1-1.1v-19.6
		C677.2,354.8,677.7,354.3,678.3,354.3z"/>
	<path class="st5" d="M678.3,383.7h0.7c0.6,0,1.1,0.5,1.1,1.1v19.8c0,0.6-0.5,1.1-1.1,1.1h-0.7c-0.6,0-1.1-0.5-1.1-1.1v-19.8
		C677.3,384.2,677.7,383.7,678.3,383.7z"/>
	<path class="st5" d="M696.9,290.1h117.9c10,0,18.1,8.1,18.1,18.1v276.9c0,10-8.1,18.1-18.1,18.1H696.9c-10,0-18.1-8.1-18.1-18.1
		V308.3C678.8,298.3,686.9,290.1,696.9,290.1z"/>
	<path class="st5" d="M742.8,299.5h17.9c1,0,1.8,0.8,1.8,1.8v0.8c0,1-0.8,1.8-1.8,1.8h-17.9c-1,0-1.8-0.8-1.8-1.8v-0.8
		C740.9,300.3,741.8,299.5,742.8,299.5z"/>
	<circle class="st5" cx="768.2" cy="301.7" r="2.5"/>
</g>
<path class="st17" d="M811.1,298.3h-17.6v2.1c0,5.6-4.5,10.1-10.1,10.1l0,0h-56.2c-5.6,0-10.1-4.5-10.1-10.1v-2.1h-16.5
	c-6.8,0-12.3,5.5-12.3,12.3l0,0v272.3c0,6.8,5.5,12.2,12.3,12.2h110.6c6.8,0,12.2-5.5,12.2-12.2V310.6
	C823.3,303.8,817.8,298.3,811.1,298.3z"/>
</svg>
